Our Hospitality/Sherlock Jr. (1923/1924) Black & White with English Intertitles

Director: Buster Keaton

Perhaps no other film offers as exciting a rollercoaster ride through the golden age of comedy than Buster Keaton's Sherlock Jr. (Dir. Buster Keaton. U.S. 1924. B&W. 44 mins. Music by The Club Foot Orchestra.). Dramatizing the uprorious exploits of a meek theater projectionist turned amateur sleuth, the film blends the knockabout physical comedy normally associated with more subtly crafted moments of humor -- such as the sequence in which Buster leaps through the silver screen and lands in the midst of the action.

Packed within its modest 45 minutes is enough comic material for several ordinary features, but Keaton chooses to compress it all into a dazzling display of cinematic inventiveness that races along like the driver-less motorcycle hurtling through a traffic-clogged city in the film's unforgettable climax -- with a stone-faced Buster perched obliviously on the handlebars.

Also featured are two short films which Keaton not only acted in but wrote and directed (with his usual collaborator, Eddie Cline), and which exemplify the complexity and sublimity of his unique filmmaking style.

This DVD also features the wonderful film Our Hospitality (Dir. Buster Keaton, Eddie Cline. U.S. 1923. B&W. 75 mins. Musical score compiled by Donald Hunsberger). In many ways a companion piece to his 1926 classic The General, it stars Keaton as a New York man who returns to his southern antebellum homeland to find himself embroiled in a longstanding feud between his family and that of the woman he loves.

What might have been an ordinary comedy of manners is transformed into a spectacle of visual surprises, with no farcicial opportunity left unexploited. The sequence in which Buster travels southward by rinky-dink locomotive is a most sublime example of the director's craft -- a truly astonishing series of comic vignettes that represents but a tiny portion of the extraordinary talent that characterizes the Art of Buster Keaton.

Media Info:
General
Complete name                    : J:\Seeding\Our Hospitality & Sherlock Jr.[DVDRip][big_dad_e™]\Our Hospitality & Sherlock Jr.[DVDRip][big_dad_e™].AVI
Format                           : AVI
Format/Info                      : Audio Video Interleave
File size                        : 1.51 GiB
Duration                         : 1h 57mn
Overall bit rate                 : 1 843 Kbps

Video
ID                               : 0
Format                           : MPEG-4 Visual
Format profile                   : Simple@L3
Format settings, BVOP            : No
Format settings, QPel            : No
Format settings, GMC             : No warppoints
Format settings, Matrix          : Default (H.263)
Codec ID                         : XVID
Codec ID/Hint                    : XviD
Duration                         : 1h 57mn
Bit rate                         : 1 509 Kbps
Width                            : 674 pixels
Height                           : 462 pixels
Display aspect ratio             : 1.297
Frame rate                       : 29.970 fps
Color space                      : YUV
Chroma subsampling               : 4:2:0
Bit depth                        : 8 bits
Scan type                        : Progressive
Bits/(Pixel*Frame)               : 0.162
Stream size                      : 1.24 GiB (82%)
Writing library                  : XviD 1.1.2 (UTC 2006-11-01)

Audio
ID                               : 1
Format                           : MPEG Audio
Format version                   : Version 1
Format profile                   : Layer 3
Mode                             : Joint stereo
Codec ID                         : 55
Codec ID/Hint                    : MP3
Duration                         : 1h 57mn
Bit rate mode                    : Constant
Bit rate                         : 320 Kbps
Channel(s)                       : 2 channels
Sampling rate                    : 48.0 KHz
Stream size                      : 269 MiB (17%)
Alignment                        : Split accross interleaves
Interleave, duration             : 24 ms (0.72 video frame)
Interleave, preload duration     : 119 ms
Writing library                  : LAME3.98ªªªªªªª¼·

File Scan:
Malwarebytes' Anti-Malware 1.50.1.1100
www.malwarebytes.org

Database version: 5378

Windows 5.1.2600 Service Pack 3
Internet Explorer 8.0.6001.18702

12/22/2010 9:31:20 PM
mbam-log-2010-12-22 (21-31-20).txt

Scan type: Quick scan
Objects scanned: 5
Time elapsed: 31 second(s)

Memory Processes Infected: 0
Memory Modules Infected: 0
Registry Keys Infected: 0
Registry Values Infected: 0
Registry Data Items Infected: 0
Folders Infected: 0
Files Infected: 0

Memory Processes Infected:
(No malicious items detected)

Memory Modules Infected:
(No malicious items detected)

Registry Keys Infected:
(No malicious items detected)

Registry Values Infected:
(No malicious items detected)

Registry Data Items Infected:
(No malicious items detected)

Folders Infected:
(No malicious items detected)

Files Infected:
(No malicious items detected)

When using TPB please read these important notes:
  
01- Anti-malware apps may warn about keygens, patches, cracks, etc., because of 
    their capabilities, (generating codes, etc.). Sometimes they're added to 
    the virus/spyware database and will be detected as malware. If you don't trust
    the keygens, patches, cracks, etc., don't use them. 
    
02- Before running .exe-files, keygens, patches, cracks, etc., always check first 
    if they can be unpacked. Often some third party added a virus to the 
    original file, repacked it and uploaded it again.

03- Letting anti-malware apps send scan results to their companies can cause
    keygens, patches, cracks, etc., to be added to their virus-database.

04- Firewalls which are set to automatically determine connections will allow 
    apps & malware!. Avoid this by manually configuring your firewall.

05- Usually (new) torrents with many downloads and seeders in a brief period is
    suspicious! Torrents with the Skull & Crossbones icon are trusted.

06- Some people use multiple accounts and post fake comments 
    and/or files trying to spread confusion. They seldom seriously
    comment or have any torrents, or a just a few to look passable.

07- Clicking on unknown links can cause malware to be installed on your machine.
  
08- In general often there are more fake and negative comments than reliable and
    positive comments.

09- In some countries uploading/downloading copyright protected material is 
    forbidden, but showing some appreciation to reliable up-loaders is not.

10- Posting fake and negative comments or fake/infected uploads on TPB can result
    in getting banned from TPB!

Requests?  Find me on SuprBay. http://forum.suprbay.org/member.php?action=profile&uid=91870
 

For reporting bad or suspicious torrents:  
http://forum.suprbay.org/forumdisplay.php?fid=29

For more of my torrents: 
https://thepiratebay.org/user/big_dad_e/  (Secured)

All torrents scanned with:
Norton Anti-virus
Malwarebytes' Anti-malware
 
http://www.pirate-party.us/

ALWAYS SEED & THANKS SEEDERS!